<svg xmlns="http://www.w3.org/2000/svg" viewBox="0 0 200 200">
  <title>SmartAlign1.1css</title>

  <g id="padComponents">
    <g id="NE" class="SAbtn">
      <rect class="bound" x="153.74" y="15.5" width="30.83" height="30.83" rx="1.9" ry="1.9"/>
      <path class="icoFill icoDef" d="M176.52,23.5l-11.35,3a.63.63,0,0,0-.29,1.05l7.54,7.54a.65.65,0,0,0,.61.17.64.64,0,0,0,.45-.45Z"/>
        <path class="icoFill icoScrunch" d="M178.8,31.46a.5.5,0,0,1-.5-.5V21.77h-9.09a.5.5,0,0,1-.5-.5.51.51,0,0,1,.5-.5h9.59a.51.51,0,0,1,.5.5V31A.5.5,0,0,1,178.8,31.46Z"/>
        <rect class="icoFill icoScrunch" x="172.36" y="23.07" width="4.63" height="4.63" rx="0.53" ry="0.53"/>
        <rect class="icoFill icoScrunch" x="166.87" y="28.56" width="4.63" height="4.63" rx="0.53" ry="0.53"/>
        <rect class="icoFill icoScrunch" x="161.38" y="34.06" width="4.63" height="4.63" rx="0.53" ry="0.53"/>
    </g>
    <g id="SW" class="SAbtn">
      <rect class="bound" x="15.57" y="153.67" width="30.83" height="30.83" rx="1.9" ry="1.9"/>
      <path class="icoFill icoDef" d="M23.52,176.48l11.36-3a.64.64,0,0,0,.44-.45.61.61,0,0,0-.16-.6l-7.54-7.54a.65.65,0,0,0-.61-.17.64.64,0,0,0-.45.45Z"/>
      <path class="icoFill icoScrunch" d="M30.91,179.23H21.33a.5.5,0,0,1-.5-.5v-9.68a.5.5,0,0,1,.5-.5.5.5,0,0,1,.5.5v9.18h9.08a.5.5,0,0,1,.5.5A.5.5,0,0,1,30.91,179.23Z"/>
      <rect class="icoFill icoScrunch" x="23.14" y="172.31" width="4.63" height="4.63" rx="0.53" ry="0.53"/>
      <rect class="icoFill icoScrunch" x="28.63" y="166.81" width="4.63" height="4.63" rx="0.53" ry="0.53"/>
      <rect class="icoFill icoScrunch" x="34.12" y="161.32" width="4.63" height="4.63" rx="0.53" ry="0.53"/>
    </g>
    <g id="SE" class="SAbtn">
      <rect class="bound" x="153.74" y="153.67" width="30.83" height="30.83" rx="1.9" ry="1.9"/>
      <path class="icoFill icoDef" d="M176.48,176.48l-11.35-3a.64.64,0,0,1-.45-.45.61.61,0,0,1,.16-.6l7.54-7.54a.65.65,0,0,1,.61-.17.64.64,0,0,1,.45.45Z"/>
        <path class="icoFill icoScrunch" d="M178.79,179.24h-9.68a.5.5,0,0,1-.5-.5.5.5,0,0,1,.5-.5h9.18v-9.09a.51.51,0,0,1,.5-.5.5.5,0,0,1,.5.5v9.59A.5.5,0,0,1,178.79,179.24Z"/>
        <rect class="icoFill icoScrunch" x="172.37" y="172.3" width="4.63" height="4.63" rx="0.53" ry="0.53"/>
        <rect class="icoFill icoScrunch" x="166.87" y="166.81" width="4.63" height="4.63" rx="0.53" ry="0.53"/>
        <rect class="icoFill icoScrunch" x="161.38" y="161.32" width="4.63" height="4.63" rx="0.53" ry="0.53"/>
    </g>
    <g id="NW" class="SAbtn">
      <rect class="bound" x="15.57" y="15.5" width="30.83" height="30.83" rx="1.9" ry="1.9"/>
      <path class="icoFill icoDef" d="M23.52,23.53l3,11.35a.64.64,0,0,0,1.06.28l7.54-7.54a.62.62,0,0,0,.16-.61.65.65,0,0,0-.44-.44Z"/>
        <path class="icoFill icoScrunch" d="M21.84,30.85h-1V26.06c0-5.29,0-5.29.5-5.29H31a.5.5,0,0,1,0,1H21.84Z"/>
        <rect class="icoFill icoScrunch" x="23.13" y="23.07" width="4.63" height="4.63" rx="0.53" ry="0.53"/>
        <rect class="icoFill icoScrunch" x="28.63" y="28.57" width="4.63" height="4.63" rx="0.53" ry="0.53"/>
        <rect class="icoFill icoScrunch" x="34.12" y="34.06" width="4.63" height="4.63" rx="0.53" ry="0.53"/>
    </g>
    <g id="E" class="SAbtn">
      <rect class="bound" x="153.73" y="56.49" width="30.83" height="87.03" rx="2.78" ry="2.78" transform="translate(338.3 200) rotate(-180)"/>
        <path class="icoFill icoDef" d="M178.73,100l-10.18,5.88a.64.64,0,0,1-.63,0,.63.63,0,0,1-.31-.55V94.67a.63.63,0,0,1,.31-.54.6.6,0,0,1,.63,0Z"/>
        <path class="icoFill icoDef" d="M178.73,112.27a.5.5,0,0,1-.5-.5V88.24a.5.5,0,1,1,1,0v23.53A.5.5,0,0,1,178.73,112.27Z"/>
        <path class="icoFill icoScrunch" d="M178.8,112.27a.5.5,0,0,1-.5-.5V88.24a.5.5,0,0,1,.5-.5.5.5,0,0,1,.5.5v23.53A.5.5,0,0,1,178.8,112.27Z"/>
        <rect class="icoFill icoScrunch" x="165.04" y="97.69" width="4.63" height="4.63" rx="0.53" ry="0.53"/>
        <rect class="icoFill icoScrunch" x="171.67" y="97.69" width="4.63" height="4.63" rx="0.53" ry="0.53"/>
        <rect class="icoFill icoScrunch" x="158.41" y="97.69" width="4.63" height="4.63" rx="0.53" ry="0.53"/>
    </g>
    <g id="W" class="SAbtn">
      <rect class="bound" x="15.56" y="56.49" width="30.83" height="87.03" rx="2.78" ry="2.78"/>
        <path class="icoFill icoDef" d="M21.27,100l10.18,5.88a.64.64,0,0,0,.63,0,.63.63,0,0,0,.31-.55V94.67a.63.63,0,0,0-.31-.54.6.6,0,0,0-.63,0Z"/>
        <path class="icoFill icoDef" d="M21.27,112.27a.5.5,0,0,1-.5-.5V88.24a.5.5,0,0,1,1,0v23.53A.5.5,0,0,1,21.27,112.27Z"/>
        <rect class="icoFill icoScrunch" x="23.84" y="97.69" width="4.63" height="4.63" rx="0.53" ry="0.53"/>
        <rect class="icoFill icoScrunch" x="30.47" y="97.69" width="4.63" height="4.63" rx="0.53" ry="0.53"/>
        <rect class="icoFill icoScrunch" x="37.1" y="97.69" width="4.63" height="4.63" rx="0.53" ry="0.53"/>
        <path class="icoFill icoScrunch" d="M21.34,112.27a.5.5,0,0,1-.5-.5V88.24a.5.5,0,0,1,1,0v23.53A.5.5,0,0,1,21.34,112.27Z"/>
    </g>
    <g id="S" class="SAbtn">
      <rect class="bound" x="56.55" y="153.67" width="87.03" height="30.83" rx="2.78" ry="2.78"/>
        <path class="icoFill icoDef" d="M111.77,179.24H88.23a.51.51,0,0,1-.5-.5.5.5,0,0,1,.5-.5h23.54a.5.5,0,0,1,.5.5A.5.5,0,0,1,111.77,179.24Z"/>
        <path class="icoFill icoDef" d="M100,178.74l5.88-10.18a.64.64,0,0,0,0-.63.63.63,0,0,0-.55-.32H94.67a.63.63,0,0,0-.55.32.64.64,0,0,0,0,.63Z"/>
        <path class="icoFill icoScrunch" d="M111.77,179.24H88.23a.51.51,0,0,1-.5-.5.5.5,0,0,1,.5-.5h23.54a.5.5,0,0,1,.5.5A.51.51,0,0,1,111.77,179.24Z"/>
        <rect class="icoFill icoScrunch" x="97.69" y="171.61" width="4.63" height="4.63" rx="0.53" ry="0.53"/>
        <rect class="icoFill icoScrunch" x="97.69" y="164.98" width="4.63" height="4.63" rx="0.53" ry="0.53"/>
        <rect class="icoFill icoScrunch" x="97.69" y="158.35" width="4.63" height="4.63" rx="0.53" ry="0.53"/>
    </g>
    <g id="N" class="SAbtn">
      <rect class="bound" x="84.64" y="-12.6" width="30.83" height="87.03" rx="2.78" ry="2.78" transform="translate(130.97 -69.15) rotate(90)"/>
        <path class="icoFill icoDef" d="M100,21.27l5.88,10.18a.64.64,0,0,1,0,.63.63.63,0,0,1-.55.32H94.67a.63.63,0,0,1-.55-.32.64.64,0,0,1,0-.63Z"/>
        <path class="icoFill icoDef" d="M111.77,21.77H88.23a.5.5,0,0,1-.5-.5.51.51,0,0,1,.5-.5h23.54a.5.5,0,0,1,.5.5A.5.5,0,0,1,111.77,21.77Z"/>
        <path class="icoFill icoScrunch" d="M111.77,21.77H88.23a.5.5,0,0,1-.5-.5.51.51,0,0,1,.5-.5h23.54a.51.51,0,0,1,.5.5A.5.5,0,0,1,111.77,21.77Z"/>
        <rect class="icoFill icoScrunch" x="97.69" y="37.63" width="4.63" height="4.63" rx="0.53" ry="0.53"/>
        <rect class="icoFill icoScrunch" x="97.69" y="31" width="4.63" height="4.63" rx="0.53" ry="0.53"/>
        <rect class="icoFill icoScrunch" x="97.69" y="24.37" width="4.63" height="4.63" rx="0.53" ry="0.53"/>
    </g>
    <g id="alignY" class="SAbtn">
      <path class="bound" d="M119.92,100a19.79,19.79,0,0,1-2.54,9.71,1.23,1.23,0,0,0,.21,1.48l23.68,23.23a1.37,1.37,0,0,0,.95.39,1.31,1.31,0,0,0,.52-.11,1.34,1.34,0,0,0,.83-1.25V66.55a1.34,1.34,0,0,0-.83-1.25,1.31,1.31,0,0,0-.52-.11,1.37,1.37,0,0,0-.95.39L117.59,88.81a1.23,1.23,0,0,0-.21,1.48A19.79,19.79,0,0,1,119.92,100Z"/>
        <path class="icoFill icoDef" d="M131.45,107.62a.5.5,0,0,1-.5-.5V92.88a.5.5,0,0,1,1,0v14.24A.5.5,0,0,1,131.45,107.62Z"/>
        <rect class="icoFill icoDef" x="128.18" y="96.73" width="6.54" height="6.54" rx="0.75" ry="0.75"/>
        <path class="icoFill icoScrunch" d="M131.52,107.62a.5.5,0,0,1-.5-.5V92.88a.5.5,0,0,1,.5-.5.5.5,0,0,1,.5.5v14.24A.5.5,0,0,1,131.52,107.62Z"/>
        <rect class="icoFill icoScrunch" x="122.57" y="97.69" width="4.63" height="4.63" rx="0.53" ry="0.53"/>
        <rect class="icoFill icoScrunch" x="129.2" y="97.69" width="4.63" height="4.63" rx="0.53" ry="0.53"/>
        <rect class="icoFill icoScrunch" x="135.83" y="97.69" width="4.63" height="4.63" rx="0.53" ry="0.53"/>
    </g>
    <g id="alignX" class="SAbtn">
      <path class="bound" d="M57.38,65.3a1.34,1.34,0,0,0-.83,1.25v66.9a1.34,1.34,0,0,0,.83,1.25,1.31,1.31,0,0,0,.52.11,1.37,1.37,0,0,0,1-.39l23.68-23.23a1.21,1.21,0,0,0,.21-1.48,19.83,19.83,0,0,1,0-19.42,1.21,1.21,0,0,0-.21-1.48L58.85,65.58a1.37,1.37,0,0,0-1-.39A1.31,1.31,0,0,0,57.38,65.3Z"/>
        <path class="icoFill icoDef" d="M75.14,100.5H60.9a.5.5,0,0,1,0-1H75.14a.5.5,0,0,1,0,1Z"/>
        <rect class="icoFill icoDef" x="64.75" y="96.73" width="6.54" height="6.54" rx="0.75" ry="0.75"/>
        <path class="icoFill icoScrunch" d="M75.21,100.5H61a.5.5,0,0,1,0-1H75.21a.5.5,0,0,1,0,1Z"/>
          <rect class="icoFill icoScrunch" x="65.78" y="104.31" width="4.63" height="4.63" rx="0.53" ry="0.53"/>
          <rect class="icoFill icoScrunch" x="65.78" y="97.69" width="4.63" height="4.63" rx="0.53" ry="0.53"/>
          <rect class="icoFill icoScrunch" x="65.78" y="91.06" width="4.63" height="4.63" rx="0.53" ry="0.53"/>
    </g>
    <g id="distributeX" class="SAbtn">
      <path class="bound" d="M65.64,58.79,88.88,82.47a1.21,1.21,0,0,0,1.47.21,19.83,19.83,0,0,1,19.42,0,1.21,1.21,0,0,0,1.48-.21l23.23-23.68a1.36,1.36,0,0,0,.28-1.47,1.34,1.34,0,0,0-1.25-.83H66.61a1.34,1.34,0,0,0-1.25.83A1.36,1.36,0,0,0,65.64,58.79Z"/>
          <rect class="icoFill icoDef" x="96.89" y="58.57" width="6.21" height="6.21" rx="0.59" ry="0.59" transform="translate(38.32 161.68) rotate(-90)"/>
          <rect class="icoFill icoDef" x="96.89" y="71.49" width="6.21" height="6.21" rx="0.59" ry="0.59" transform="translate(25.4 174.6) rotate(-90)"/>
          <circle class="icoFillAlt icoDef" cx="99.97" cy="69.97" r="0.5"/>
          <circle class="icoFillAlt icoDef" cx="99.97" cy="66.31" r="0.5"/>
        <rect class="icoFill icoScrunch" x="96.89" y="58.57" width="6.21" height="6.21" rx="0.59" ry="0.59" transform="translate(38.32 161.68) rotate(-90)"/>
        <rect class="icoFill icoScrunch" x="96.89" y="71.49" width="6.21" height="6.21" rx="0.59" ry="0.59" transform="translate(25.4 174.6) rotate(-90)"/>
    </g>
    <g id="distributeY" class="SAbtn">
      <path class="bound" d="M65.64,141.21a1.36,1.36,0,0,0-.28,1.47,1.34,1.34,0,0,0,1.25.83h66.9a1.34,1.34,0,0,0,1.25-.83,1.36,1.36,0,0,0-.28-1.47l-23.23-23.68a1.23,1.23,0,0,0-1.48-.21,19.83,19.83,0,0,1-19.42,0,1.2,1.2,0,0,0-1.47.21Z"/>
          <rect class="icoFill icoDef" x="103.35" y="129.06" width="6.21" height="6.21" rx="0.59" ry="0.59"/>
          <rect class="icoFill icoDef" x="90.43" y="129.06" width="6.21" height="6.21" rx="0.59" ry="0.59"/>
          <circle class="icoFillAlt icoDef" cx="98.17" cy="132.13" r="0.5"/>
          <circle class="icoFillAlt icoDef" cx="101.83" cy="132.13" r="0.5"/>
        <rect class="icoFill icoScrunch" x="103.35" y="129.06" width="6.21" height="6.21" rx="0.59" ry="0.59"/>
        <rect class="icoFill icoScrunch" x="90.43" y="129.06" width="6.21" height="6.21" rx="0.59" ry="0.59"/>
    </g>
    <g id="Center" class="SAbtn">
      <path class="bound" d="M100.06,85.14A14.86,14.86,0,1,0,114.92,100a14.86,14.86,0,0,0-14.86-14.86"/>
      <path class="icoFill icoDef" d="M107.12,99.5h-3.85v-2a.76.76,0,0,0-.75-.75h-2V92.88a.5.5,0,0,0-1,0v3.85h-2a.76.76,0,0,0-.75.75v2H92.88a.5.5,0,0,0,0,1h3.85v2a.76.76,0,0,0,.75.75h2v3.85a.5.5,0,0,0,1,0v-3.85h2a.76.76,0,0,0,.75-.75v-2h3.85a.5.5,0,0,0,0-1Z"/>
      <path class="icoFill icoScrunch" d="M107.12,99.5h-3.85v-2a.76.76,0,0,0-.75-.75h-2V92.88a.5.5,0,0,0-1,0v3.85h-2a.76.76,0,0,0-.75.75v2H92.88a.5.5,0,0,0,0,1h3.85v2a.76.76,0,0,0,.75.75h2v3.85a.5.5,0,0,0,1,0v-3.85h2a.76.76,0,0,0,.75-.75v-2h3.85a.5.5,0,0,0,0-1Z"/>
    </g>

    <g id="frameDash">
      <line class="frameDashLine" x1="180.48" y1="192.14" x2="15.69" y2="192.14"/>
      <line class="frameDashLine" x1="7.86" y1="180.48" x2="7.86" y2="15.69"/>
      <line class="frameDashLine" x1="19.52" y1="7.86" x2="184.31" y2="7.86"/>
      <line class="frameDashLine" x1="192.14" y1="19.52" x2="192.14" y2="184.31"/>
    </g>
    <g id="frameSolid">
      <rect id="frameS" x="7.86" y="7.86" width="184.29" height="184.29"/>
    </g>
    <g id="frameNodes">
      <rect class="frameNode" x="188.81" y="4.53" width="6.66" height="6.66"/>
      <rect class="frameNode" x="96.67" y="4.53" width="6.66" height="6.66"/>
      <rect class="frameNode" x="4.53" y="4.53" width="6.66" height="6.66"/>
      <rect class="frameNode" x="188.81" y="96.67" width="6.66" height="6.66"/>
      <rect class="frameNode" x="4.53" y="96.67" width="6.66" height="6.66"/>
      <rect class="frameNode" x="188.81" y="188.81" width="6.66" height="6.66"/>
      <rect class="frameNode" x="96.67" y="188.81" width="6.66" height="6.66"/>
      <rect class="frameNode" x="4.53" y="188.81" width="6.66" height="6.66"/>
    </g>
  </g>
</svg>
