<svg xmlns="http://www.w3.org/2000/svg" viewBox="0 0 200 200">
  <title>Proto 1</title>
  <g id="padComponents">
    <g id="NW" class="SAbtn">
      <rect class="bound" x="15.5" y="15.5" width="30.83" height="30.83" rx="1.9" ry="1.9" />
      <path class="icoFill" d="M23.52,23.52l3,11.35a.64.64,0,0,0,.45.45.62.62,0,0,0,.61-.16l7.54-7.54a.62.62,0,0,0,.16-.61.64.64,0,0,0-.45-.45Z" />
    </g>
    <g id="SE" class="SAbtn">
      <rect class="bound" x="153.66" y="153.67" width="30.83" height="30.83" rx="1.9" ry="1.9"/>
      <path class="icoFill" d="M176.48,176.48l-11.35-3a.64.64,0,0,1-.45-.45.62.62,0,0,1,.16-.61l7.54-7.54a.62.62,0,0,1,.61-.16.64.64,0,0,1,.45.45Z"/>
    </g>
    <g id="SW" class="SAbtn">
      <rect class="bound" x="15.5" y="153.67" width="30.83" height="30.83" rx="1.9" ry="1.9"/>
      <path class="icoFill" d="M23.52,176.48l11.35-3a.64.64,0,0,0,.45-.45.62.62,0,0,0-.16-.61l-7.54-7.54a.62.62,0,0,0-.61-.16.64.64,0,0,0-.45.45Z"/>
    </g>
    <g id="NE" class="SAbtn">
      <rect class="bound" x="153.66" y="15.5" width="30.83" height="30.83" rx="1.9" ry="1.9"/>
      <path class="icoFill" d="M176.48,23.52l-3,11.35a.64.64,0,0,1-.45.45.62.62,0,0,1-.61-.16l-7.54-7.54a.62.62,0,0,1-.16-.61.64.64,0,0,1,.45-.45Z"/>
    </g>
    <g id="W" class="SAbtn">
      <rect class="bound" x="15.5" y="56.49" width="30.83" height="87.03" rx="2.78" ry="2.78"/>
      <path class="icoFill" d="M21.27,100l10.18,5.88a.63.63,0,0,0,.94-.55V94.67a.63.63,0,0,0-.94-.55Z"/>
      <line class="icoStr"  x1="21.27" y1="88.23" x2="21.27" y2="111.77"/>
    </g>
    <g id="E" class="SAbtn">
      <rect class="bound" x="153.67" y="56.49" width="30.83" height="87.03" rx="2.78" ry="2.78"/>
      <path class="icoFill" d="M178.73,100l-10.18,5.88a.63.63,0,0,1-.94-.55V94.67a.63.63,0,0,1,.94-.55Z"/>
      <line class="icoStr"  x1="178.73" y1="88.23" x2="178.73" y2="111.77"/>
    </g>
    <g id="S" class="SAbtn">
      <rect class="bound" x="56.49" y="153.67" width="87.03" height="30.83" rx="2.78" ry="2.78"/>
      <path class="icoFill" d="M100,178.73l5.88-10.18a.63.63,0,0,0-.55-.94H94.67a.63.63,0,0,0-.55.94Z"/>
      <line class="icoStr" x1="88.23" y1="178.73" x2="111.77" y2="178.73"/>
    </g>
    <g id="N" class="SAbtn">
      <rect class="bound" x="56.49" y="15.5" width="87.03" height="30.83" rx="2.78" ry="2.78"/>
      <path class="icoFill" d="M100,21.27l5.88,10.18a.63.63,0,0,1-.55.94H94.67a.63.63,0,0,1-.55-.94Z"/>
      <line class="icoStr" x1="88.23" y1="21.27" x2="111.77" y2="21.27" />
    </g>
    <g id="verticalCenter" class="SAbtn">
      <path class="bound" d="M80.14,100a19.79,19.79,0,0,0,2.54,9.71,1.21,1.21,0,0,1-.21,1.48L58.79,134.42a1.37,1.37,0,0,1-.95.39,1.31,1.31,0,0,1-.52-.11,1.34,1.34,0,0,1-.83-1.25V66.55a1.34,1.34,0,0,1,.83-1.25,1.31,1.31,0,0,1,.52-.11,1.37,1.37,0,0,1,.95.39L82.47,88.81a1.23,1.23,0,0,1,.21,1.48A19.79,19.79,0,0,0,80.14,100Z"/>
      <path class="icoFill" d="M68,100.6,71.68,107a.23.23,0,0,1,0,.25.25.25,0,0,1-.22.13H64.58a.25.25,0,0,1-.22-.13.23.23,0,0,1,0-.25Z"/>
      <path class="icoFill" d="M68,100.6l3.66-6.35a.23.23,0,0,0,0-.25.25.25,0,0,0-.22-.13H64.58a.25.25,0,0,0-.22.13.23.23,0,0,0,0,.25Z"/>
      <line class="icoStr" x1="60.9" y1="100.6" x2="75.14" y2="100.6"/>
    </g>
    <g id="horizontalCenter" class="SAbtn">
      <path class="bound" d="M142.68,65.3a1.34,1.34,0,0,1,.83,1.25v66.9a1.34,1.34,0,0,1-.83,1.25,1.31,1.31,0,0,1-.52.11,1.37,1.37,0,0,1-.95-.39l-23.68-23.23a1.23,1.23,0,0,1-.21-1.48,19.83,19.83,0,0,0,0-19.42,1.21,1.21,0,0,1,.21-1.48l23.68-23.23a1.37,1.37,0,0,1,.95-.39A1.31,1.31,0,0,1,142.68,65.3Z"/>
      <path class="icoFill" d="M131.45,100.6l6.35-3.66a.23.23,0,0,1,.25,0,.25.25,0,0,1,.13.22V104a.25.25,0,0,1-.13.22.23.23,0,0,1-.25,0Z"/>
      <path class="icoFill" d="M131.45,100.6l-6.35-3.66a.23.23,0,0,0-.25,0,.25.25,0,0,0-.13.22V104a.25.25,0,0,0,.13.22.23.23,0,0,0,.25,0Z"/>
      <line class="icoStr" x1="131.45" y1="107.72" x2="131.45" y2="93.48"/>
    </g>
    <g id="distVert" class="SAbtn">
      <path class="bound" d="M134.42,58.79,111.19,82.47a1.23,1.23,0,0,1-1.48.21,19.83,19.83,0,0,0-19.42,0,1.21,1.21,0,0,1-1.48-.21L65.58,58.79a1.36,1.36,0,0,1-.28-1.47,1.34,1.34,0,0,1,1.25-.83h66.9a1.34,1.34,0,0,1,1.25.83A1.36,1.36,0,0,1,134.42,58.79Z"/>
      <line class="icoStr" x1="93.73" y1="62" x2="106.27" y2="62"/>
      <line class="icoStr" x1="93.73" y1="67.77" x2="106.27" y2="67.77"/>
      <line class="icoStr" x1="93.73" y1="73.54" x2="106.27" y2="73.54"/>
    </g>
    <g id="distHori" class="SAbtn">
      <path class="bound" d="M134.42,141.21l-23.91-24.37a19.8,19.8,0,0,1-21,0L65.58,141.21a1.36,1.36,0,0,0-.28,1.47,1.34,1.34,0,0,0,1.25.83h66.9a1.34,1.34,0,0,0,1.25-.83A1.36,1.36,0,0,0,134.42,141.21Zm0,0-23.91-24.37a19.8,19.8,0,0,1-21,0L65.58,141.21a1.36,1.36,0,0,0-.28,1.47,1.34,1.34,0,0,0,1.25.83h66.9a1.34,1.34,0,0,0,1.25-.83A1.36,1.36,0,0,0,134.42,141.21Z"/>
      <line class="icoStr" x1="94.23" y1="137.34" x2="94.23" y2="124.79"/>
      <line class="icoStr" x1="100" y1="137.34" x2="100" y2="124.79"/>
      <line class="icoStr" x1="105.77" y1="137.34" x2="105.77" y2="124.79"/>
    </g>
    <g id="Center" class="SAbtn">
      <path class="bound" d="M100,85.14A14.86,14.86,0,1,1,85.14,100,14.86,14.86,0,0,1,100,85.14"/>
      <circle class="icoFill" cx="100" cy="100" r="5.32"/>
      <line class="icoStr" x1="89.3" y1="100" x2="110.7" y2="100"/>
      <line class="icoStr" x1="100" y1="110.7" x2="100" y2="89.3"/>
    </g>
  </g>
  <g id="frameDash">
    <line class="frameDashLine" x1="180.48" y1="192.14" x2="15.69" y2="192.14"/>
    <line class="frameDashLine" x1="7.86" y1="180.48" x2="7.86" y2="15.69"/>
    <line class="frameDashLine" x1="19.52" y1="7.86" x2="184.31" y2="7.86"/>
    <line class="frameDashLine" x1="192.14" y1="19.52" x2="192.14" y2="184.31"/>
  </g>
  <g id="frameSolid">
    <rect id="frameS" x="7.86" y="7.86" width="184.29" height="184.29"/>
  </g>
  <g id="frameNodes">
    <rect class="frameNode" x="188.81" y="4.53" width="6.66" height="6.66"/>
    <rect class="frameNode" x="96.67" y="4.53" width="6.66" height="6.66"/>
    <rect class="frameNode" x="4.53" y="4.53" width="6.66" height="6.66"/>
    <rect class="frameNode" x="188.81" y="96.67" width="6.66" height="6.66"/>
    <rect class="frameNode" x="4.53" y="96.67" width="6.66" height="6.66"/>
    <rect class="frameNode" x="188.81" y="188.81" width="6.66" height="6.66"/>
    <rect class="frameNode" x="96.67" y="188.81" width="6.66" height="6.66"/>
    <rect class="frameNode" x="4.53" y="188.81" width="6.66" height="6.66"/>
  </g>
</svg>
