<svg xmlns="http://www.w3.org/2000/svg" viewBox="0 0 200 200">
  <title>SmartAlign1.1</title>
  <g style="isolation: isolate">
    <g id="bg">
      <rect id="frame" width="200" height="200" style="fill: #323232"/>
    </g>
    <g id="padComponents">
      <g id="NE">
        <rect x="153.74" y="15.5" width="30.83" height="30.83" rx="1.9" ry="1.9" style="fill: #262626"/>
        <g>
          <path d="M178.8,31.46a.5.5,0,0,1-.5-.5V21.77h-9.09a.5.5,0,0,1-.5-.5.51.51,0,0,1,.5-.5h9.59a.51.51,0,0,1,.5.5V31A.5.5,0,0,1,178.8,31.46Z" style="fill: #a1a1a1"/>
          <rect x="172.36" y="23.07" width="4.63" height="4.63" rx="0.53" ry="0.53" style="fill: #a1a1a1"/>
          <rect x="166.87" y="28.56" width="4.63" height="4.63" rx="0.53" ry="0.53" style="fill: #a1a1a1"/>
          <rect x="161.38" y="34.06" width="4.63" height="4.63" rx="0.53" ry="0.53" style="fill: #a1a1a1"/>
        </g>
      </g>
      <g id="SW">
        <rect x="15.57" y="153.67" width="30.83" height="30.83" rx="1.9" ry="1.9" style="fill: #262626"/>
        <path d="M23.52,176.48l11.36-3a.64.64,0,0,0,.44-.45.61.61,0,0,0-.16-.6l-7.54-7.54a.65.65,0,0,0-.61-.17.64.64,0,0,0-.45.45Z" style="fill: #a1a1a1"/>
        <g>
          <path d="M30.91,179.23H21.33a.5.5,0,0,1-.5-.5v-9.68a.5.5,0,0,1,.5-.5.5.5,0,0,1,.5.5v9.18h9.08a.5.5,0,0,1,.5.5A.5.5,0,0,1,30.91,179.23Z" style="fill: #a1a1a1"/>
          <rect x="23.14" y="172.31" width="4.63" height="4.63" rx="0.53" ry="0.53" style="fill: #a1a1a1"/>
          <rect x="28.63" y="166.81" width="4.63" height="4.63" rx="0.53" ry="0.53" style="fill: #a1a1a1"/>
          <rect x="34.12" y="161.32" width="4.63" height="4.63" rx="0.53" ry="0.53" style="fill: #a1a1a1"/>
        </g>
      </g>
      <g id="SE">
        <rect x="153.74" y="153.67" width="30.83" height="30.83" rx="1.9" ry="1.9" style="fill: #262626"/>
        <path d="M176.48,176.48l-11.35-3a.64.64,0,0,1-.45-.45.61.61,0,0,1,.16-.6l7.54-7.54a.65.65,0,0,1,.61-.17.64.64,0,0,1,.45.45Z" style="fill: #a1a1a1"/>
        <g>
          <path d="M178.79,179.24h-9.68a.5.5,0,0,1-.5-.5.5.5,0,0,1,.5-.5h9.18v-9.09a.51.51,0,0,1,.5-.5.5.5,0,0,1,.5.5v9.59A.5.5,0,0,1,178.79,179.24Z" style="fill: #a1a1a1"/>
          <rect x="172.37" y="172.3" width="4.63" height="4.63" rx="0.53" ry="0.53" style="fill: #a1a1a1"/>
          <rect x="166.87" y="166.81" width="4.63" height="4.63" rx="0.53" ry="0.53" style="fill: #a1a1a1"/>
          <rect x="161.38" y="161.32" width="4.63" height="4.63" rx="0.53" ry="0.53" style="fill: #a1a1a1"/>
        </g>
      </g>
      <g id="NW">
        <rect x="15.57" y="15.5" width="30.83" height="30.83" rx="1.9" ry="1.9" style="fill: #262626"/>
        <path d="M23.52,23.53l3,11.35a.64.64,0,0,0,1.06.28l7.54-7.54a.62.62,0,0,0,.16-.61.65.65,0,0,0-.44-.44Z" style="fill: #a1a1a1"/>
        <g>
          <path d="M21.84,30.85h-1V26.06c0-5.29,0-5.29.5-5.29H31a.5.5,0,0,1,0,1H21.84Z" style="fill: #a1a1a1"/>
          <rect x="23.13" y="23.07" width="4.63" height="4.63" rx="0.53" ry="0.53" style="fill: #a1a1a1"/>
          <rect x="28.63" y="28.57" width="4.63" height="4.63" rx="0.53" ry="0.53" style="fill: #a1a1a1"/>
          <rect x="34.12" y="34.06" width="4.63" height="4.63" rx="0.53" ry="0.53" style="fill: #a1a1a1"/>
        </g>
      </g>
      <g id="E">
        <rect x="153.73" y="56.49" width="30.83" height="87.03" rx="2.78" ry="2.78" transform="translate(338.3 200) rotate(-180)" style="fill: #262626"/>
        <g>
          <path d="M178.73,100l-10.18,5.88a.64.64,0,0,1-.63,0,.63.63,0,0,1-.31-.55V94.67a.63.63,0,0,1,.31-.54.6.6,0,0,1,.63,0Z" style="fill: #a1a1a1"/>
          <path d="M178.73,112.27a.5.5,0,0,1-.5-.5V88.24a.5.5,0,1,1,1,0v23.53A.5.5,0,0,1,178.73,112.27Z" style="fill: #a1a1a1"/>
        </g>
        <g>
          <path d="M178.8,112.27a.5.5,0,0,1-.5-.5V88.24a.5.5,0,0,1,.5-.5.5.5,0,0,1,.5.5v23.53A.5.5,0,0,1,178.8,112.27Z" style="fill: #a1a1a1"/>
          <rect x="165.04" y="97.69" width="4.63" height="4.63" rx="0.53" ry="0.53" style="fill: #a1a1a1"/>
          <rect x="171.67" y="97.69" width="4.63" height="4.63" rx="0.53" ry="0.53" style="fill: #a1a1a1"/>
          <rect x="158.41" y="97.69" width="4.63" height="4.63" rx="0.53" ry="0.53" style="fill: #a1a1a1"/>
        </g>
      </g>
      <g id="W">
        <rect x="15.56" y="56.49" width="30.83" height="87.03" rx="2.78" ry="2.78" style="fill: #262626"/>
        <g>
          <path d="M21.27,100l10.18,5.88a.64.64,0,0,0,.63,0,.63.63,0,0,0,.31-.55V94.67a.63.63,0,0,0-.31-.54.6.6,0,0,0-.63,0Z" style="fill: #a1a1a1"/>
          <path d="M21.27,112.27a.5.5,0,0,1-.5-.5V88.24a.5.5,0,0,1,1,0v23.53A.5.5,0,0,1,21.27,112.27Z" style="fill: #a1a1a1"/>
        </g>
        <g>
          <rect x="23.84" y="97.69" width="4.63" height="4.63" rx="0.53" ry="0.53" style="fill: #a1a1a1"/>
          <rect x="30.47" y="97.69" width="4.63" height="4.63" rx="0.53" ry="0.53" style="fill: #a1a1a1"/>
          <rect x="37.1" y="97.69" width="4.63" height="4.63" rx="0.53" ry="0.53" style="fill: #a1a1a1"/>
          <path d="M21.34,112.27a.5.5,0,0,1-.5-.5V88.24a.5.5,0,0,1,1,0v23.53A.5.5,0,0,1,21.34,112.27Z" style="fill: #a1a1a1"/>
        </g>
      </g>
      <g id="S">
        <rect x="56.55" y="153.67" width="87.03" height="30.83" rx="2.78" ry="2.78" style="fill: #262626"/>
        <g>
          <path d="M111.77,179.24H88.23a.51.51,0,0,1-.5-.5.5.5,0,0,1,.5-.5h23.54a.5.5,0,0,1,.5.5A.5.5,0,0,1,111.77,179.24Z" style="fill: #a1a1a1"/>
          <path d="M100,178.74l5.88-10.18a.64.64,0,0,0,0-.63.63.63,0,0,0-.55-.32H94.67a.63.63,0,0,0-.55.32.64.64,0,0,0,0,.63Z" style="fill: #a1a1a1"/>
        </g>
        <g>
          <path d="M111.77,179.24H88.23a.51.51,0,0,1-.5-.5.5.5,0,0,1,.5-.5h23.54a.5.5,0,0,1,.5.5A.51.51,0,0,1,111.77,179.24Z" style="fill: #a1a1a1"/>
          <rect x="97.69" y="171.61" width="4.63" height="4.63" rx="0.53" ry="0.53" style="fill: #a1a1a1"/>
          <rect x="97.69" y="164.98" width="4.63" height="4.63" rx="0.53" ry="0.53" style="fill: #a1a1a1"/>
          <rect x="97.69" y="158.35" width="4.63" height="4.63" rx="0.53" ry="0.53" style="fill: #a1a1a1"/>
        </g>
      </g>
      <g id="N">
        <rect x="84.64" y="-12.6" width="30.83" height="87.03" rx="2.78" ry="2.78" transform="translate(130.97 -69.15) rotate(90)" style="fill: #262626"/>
        <g>
          <path d="M100,21.27l5.88,10.18a.64.64,0,0,1,0,.63.63.63,0,0,1-.55.32H94.67a.63.63,0,0,1-.55-.32.64.64,0,0,1,0-.63Z" style="fill: #a1a1a1"/>
          <path d="M111.77,21.77H88.23a.5.5,0,0,1-.5-.5.51.51,0,0,1,.5-.5h23.54a.5.5,0,0,1,.5.5A.5.5,0,0,1,111.77,21.77Z" style="fill: #a1a1a1"/>
        </g>
        <g>
          <path d="M111.77,21.77H88.23a.5.5,0,0,1-.5-.5.51.51,0,0,1,.5-.5h23.54a.51.51,0,0,1,.5.5A.5.5,0,0,1,111.77,21.77Z" style="fill: #a1a1a1"/>
          <rect x="97.69" y="37.63" width="4.63" height="4.63" rx="0.53" ry="0.53" style="fill: #a1a1a1"/>
          <rect x="97.69" y="31" width="4.63" height="4.63" rx="0.53" ry="0.53" style="fill: #a1a1a1"/>
          <rect x="97.69" y="24.37" width="4.63" height="4.63" rx="0.53" ry="0.53" style="fill: #a1a1a1"/>
        </g>
      </g>
      <g id="innerE">
        <path d="M119.92,100a19.79,19.79,0,0,1-2.54,9.71,1.23,1.23,0,0,0,.21,1.48l23.68,23.23a1.37,1.37,0,0,0,.95.39,1.31,1.31,0,0,0,.52-.11,1.34,1.34,0,0,0,.83-1.25V66.55a1.34,1.34,0,0,0-.83-1.25,1.31,1.31,0,0,0-.52-.11,1.37,1.37,0,0,0-.95.39L117.59,88.81a1.23,1.23,0,0,0-.21,1.48A19.79,19.79,0,0,1,119.92,100Z" style="fill: #262626"/>
        <g>
          <path d="M131.45,107.62a.5.5,0,0,1-.5-.5V92.88a.5.5,0,0,1,1,0v14.24A.5.5,0,0,1,131.45,107.62Z" style="fill: #a1a1a1"/>
          <rect x="128.18" y="96.73" width="6.54" height="6.54" rx="0.75" ry="0.75" style="fill: #a1a1a1"/>
        </g>
        <g>
          <path d="M131.52,107.62a.5.5,0,0,1-.5-.5V92.88a.5.5,0,0,1,.5-.5.5.5,0,0,1,.5.5v14.24A.5.5,0,0,1,131.52,107.62Z" style="fill: #a1a1a1"/>
          <rect x="122.57" y="97.69" width="4.63" height="4.63" rx="0.53" ry="0.53" style="fill: #a1a1a1"/>
          <rect x="129.2" y="97.69" width="4.63" height="4.63" rx="0.53" ry="0.53" style="fill: #a1a1a1"/>
          <rect x="135.83" y="97.69" width="4.63" height="4.63" rx="0.53" ry="0.53" style="fill: #a1a1a1"/>
        </g>
      </g>
      <g id="innerW">
        <path d="M57.38,65.3a1.34,1.34,0,0,0-.83,1.25v66.9a1.34,1.34,0,0,0,.83,1.25,1.31,1.31,0,0,0,.52.11,1.37,1.37,0,0,0,1-.39l23.68-23.23a1.21,1.21,0,0,0,.21-1.48,19.83,19.83,0,0,1,0-19.42,1.21,1.21,0,0,0-.21-1.48L58.85,65.58a1.37,1.37,0,0,0-1-.39A1.31,1.31,0,0,0,57.38,65.3Z" style="fill: #262626"/>
        <g>
          <path d="M75.14,100.5H60.9a.5.5,0,0,1,0-1H75.14a.5.5,0,0,1,0,1Z" style="fill: #a1a1a1"/>
          <rect x="64.75" y="96.73" width="6.54" height="6.54" rx="0.75" ry="0.75" style="fill: #a1a1a1"/>
        </g>
        <g>
          <path d="M75.21,100.5H61a.5.5,0,0,1,0-1H75.21a.5.5,0,0,1,0,1Z" style="fill: #a1a1a1"/>
          <rect x="65.78" y="104.31" width="4.63" height="4.63" rx="0.53" ry="0.53" style="fill: #a1a1a1"/>
          <rect x="65.78" y="97.69" width="4.63" height="4.63" rx="0.53" ry="0.53" style="fill: #a1a1a1"/>
          <rect x="65.78" y="91.06" width="4.63" height="4.63" rx="0.53" ry="0.53" style="fill: #a1a1a1"/>
        </g>
      </g>
      <g id="innerN">
        <path d="M65.64,58.79,88.88,82.47a1.21,1.21,0,0,0,1.47.21,19.83,19.83,0,0,1,19.42,0,1.21,1.21,0,0,0,1.48-.21l23.23-23.68a1.36,1.36,0,0,0,.28-1.47,1.34,1.34,0,0,0-1.25-.83H66.61a1.34,1.34,0,0,0-1.25.83A1.36,1.36,0,0,0,65.64,58.79Z" style="fill: #262626"/>
        <g>
          <rect x="96.89" y="58.57" width="6.21" height="6.21" rx="0.59" ry="0.59" transform="translate(38.32 161.68) rotate(-90)" style="fill: #a1a1a1"/>
          <rect x="96.89" y="71.49" width="6.21" height="6.21" rx="0.59" ry="0.59" transform="translate(25.4 174.6) rotate(-90)" style="fill: #a1a1a1"/>
          <g style="mix-blend-mode: difference">
            <path d="M100,66.81a.51.51,0,0,1-.5-.5.43.43,0,0,1,0-.19.36.36,0,0,1,.11-.16.49.49,0,0,1,.54-.11.45.45,0,0,1,.17.11.55.55,0,0,1,.14.35.5.5,0,0,1-.14.35.45.45,0,0,1-.17.11A.41.41,0,0,1,100,66.81Z" style="fill: #a1a1a1"/>
            <path d="M100,70.47a.51.51,0,0,1-.5-.5.41.41,0,0,1,0-.19.36.36,0,0,1,.11-.16.49.49,0,0,1,.54-.11.45.45,0,0,1,.17.11.44.44,0,0,1,.1.16.41.41,0,0,1,0,.19.5.5,0,0,1-.14.35.45.45,0,0,1-.17.11A.41.41,0,0,1,100,70.47Z" style="fill: #a1a1a1"/>
          </g>
        </g>
        <g>
          <rect x="96.89" y="58.57" width="6.21" height="6.21" rx="0.59" ry="0.59" transform="translate(38.32 161.68) rotate(-90)" style="fill: #a1a1a1"/>
          <rect x="96.89" y="71.49" width="6.21" height="6.21" rx="0.59" ry="0.59" transform="translate(25.4 174.6) rotate(-90)" style="fill: #a1a1a1"/>
          <g style="mix-blend-mode: difference">
            <path d="M100,62.18a.48.48,0,0,1-.36-.15.5.5,0,0,1-.14-.35.58.58,0,0,1,0-.19,1,1,0,0,1,.11-.17.53.53,0,0,1,.71,0,1,1,0,0,1,.11.17.58.58,0,0,1,0,.19.51.51,0,0,1-.15.35A.49.49,0,0,1,100,62.18Z" style="fill: #a1a1a1"/>
            <path d="M100,75.1a.45.45,0,0,1-.2,0,.54.54,0,0,1-.16-.1,1,1,0,0,1-.11-.17.58.58,0,0,1,0-.19.63.63,0,0,1,0-.19.91.91,0,0,1,.11-.16.53.53,0,0,1,.55-.11.57.57,0,0,1,.16.11.91.91,0,0,1,.11.16.65.65,0,0,1,0,.19.58.58,0,0,1,0,.19,1,1,0,0,1-.11.17A.52.52,0,0,1,100,75.1Z" style="fill: #a1a1a1"/>
          </g>
          <path d="M100.92,75.1H99.08a.5.5,0,0,1-.5-.5.5.5,0,0,1,.5-.5h1.84a.5.5,0,0,1,.5.5A.5.5,0,0,1,100.92,75.1Z" style="fill: #a1a1a1"/>
          <path d="M100.92,62.18H99.08a.5.5,0,0,1,0-1h1.84a.5.5,0,0,1,0,1Z" style="fill: #a1a1a1"/>
        </g>
      </g>
      <g id="innerS">
        <path d="M65.64,141.21a1.36,1.36,0,0,0-.28,1.47,1.34,1.34,0,0,0,1.25.83h66.9a1.34,1.34,0,0,0,1.25-.83,1.36,1.36,0,0,0-.28-1.47l-23.23-23.68a1.23,1.23,0,0,0-1.48-.21,19.83,19.83,0,0,1-19.42,0,1.2,1.2,0,0,0-1.47.21Z" style="fill: #262626"/>
        <path d="M65.36,142.68a1.34,1.34,0,0,0,1.25.83h66.9a1.34,1.34,0,0,0,1.25-.83,1.36,1.36,0,0,0-.28-1.47l-23.91-24.37a19.8,19.8,0,0,1-21,0L65.64,141.21A1.36,1.36,0,0,0,65.36,142.68Zm0,0a1.34,1.34,0,0,0,1.25.83h66.9a1.34,1.34,0,0,0,1.25-.83,1.36,1.36,0,0,0-.28-1.47l-23.91-24.37a19.8,19.8,0,0,1-21,0L65.64,141.21A1.36,1.36,0,0,0,65.36,142.68Z" style="fill: #262626"/>
        <g>
          <rect x="103.35" y="129.06" width="6.21" height="6.21" rx="0.59" ry="0.59" style="fill: #a1a1a1"/>
          <rect x="90.43" y="129.06" width="6.21" height="6.21" rx="0.59" ry="0.59" style="fill: #a1a1a1"/>
          <g style="mix-blend-mode: difference">
            <path d="M101.83,132.63a.47.47,0,0,1-.35-.15.51.51,0,0,1-.15-.35.65.65,0,0,1,0-.19.46.46,0,0,1,.11-.16.42.42,0,0,1,.16-.11.51.51,0,0,1,.55.11.51.51,0,0,1,0,.7.42.42,0,0,1-.16.11A.48.48,0,0,1,101.83,132.63Z" style="fill: #a1a1a1"/>
            <path d="M98.17,132.63a.43.43,0,0,1-.19,0,.42.42,0,0,1-.16-.11.49.49,0,0,1-.15-.35.5.5,0,0,1,.15-.35.51.51,0,0,1,.71,0,.64.64,0,0,1,.11.16.63.63,0,0,1,0,.19.48.48,0,0,1-.14.35.42.42,0,0,1-.16.11A.45.45,0,0,1,98.17,132.63Z" style="fill: #a1a1a1"/>
          </g>
        </g>
        <g>
          <rect x="103.35" y="129.06" width="6.21" height="6.21" rx="0.59" ry="0.59" style="fill: #a1a1a1"/>
          <rect x="90.43" y="129.06" width="6.21" height="6.21" rx="0.59" ry="0.59" style="fill: #a1a1a1"/>
          <g style="mix-blend-mode: difference">
            <path d="M106.46,132.63a.51.51,0,0,1-.5-.5.43.43,0,0,1,0-.19.36.36,0,0,1,.11-.16.5.5,0,0,1,.7,0,.48.48,0,0,1,0,.7.36.36,0,0,1-.16.11A.41.41,0,0,1,106.46,132.63Z" style="fill: #a1a1a1"/>
            <path d="M93.54,132.63a.41.41,0,0,1-.19,0,.39.39,0,0,1-.17-.11.44.44,0,0,1-.1-.16.41.41,0,0,1,0-.19.55.55,0,0,1,.14-.35.39.39,0,0,1,.17-.11.5.5,0,0,1,.38,0,.36.36,0,0,1,.16.11.46.46,0,0,1,.11.16.65.65,0,0,1,0,.19.58.58,0,0,1,0,.19.46.46,0,0,1-.11.16A.47.47,0,0,1,93.54,132.63Z" style="fill: #a1a1a1"/>
          </g>
          <path d="M93.54,133.59a.5.5,0,0,1-.5-.5v-1.85a.5.5,0,0,1,.5-.5.5.5,0,0,1,.5.5v1.85A.5.5,0,0,1,93.54,133.59Z" style="fill: #a1a1a1"/>
          <path d="M106.46,133.59a.5.5,0,0,1-.5-.5v-1.85a.5.5,0,0,1,.5-.5.5.5,0,0,1,.5.5v1.85A.5.5,0,0,1,106.46,133.59Z" style="fill: #a1a1a1"/>
        </g>
      </g>
      <g id="center">
        <path d="M100.06,85.14A14.86,14.86,0,1,0,114.92,100a14.86,14.86,0,0,0-14.86-14.86" style="fill: #262626"/>
        <g>
          <rect x="96.73" y="96.73" width="6.54" height="6.54" rx="0.75" ry="0.75" style="fill: #a1a1a1"/>
          <path d="M107.12,100.5H92.88a.5.5,0,0,1,0-1h14.24a.5.5,0,0,1,0,1Z" style="fill: #a1a1a1"/>
          <path d="M100,107.62a.5.5,0,0,1-.5-.5V92.88a.5.5,0,0,1,1,0v14.24A.5.5,0,0,1,100,107.62Z" style="fill: #a1a1a1"/>
        </g>
        <g>
          <rect x="96.73" y="96.73" width="6.54" height="6.54" rx="0.75" ry="0.75" style="fill: #a1a1a1"/>
          <path d="M107.12,100.5H92.88a.5.5,0,0,1,0-1h14.24a.5.5,0,0,1,0,1Z" style="fill: #a1a1a1"/>
          <path d="M100,107.62a.5.5,0,0,1-.5-.5V92.88a.5.5,0,0,1,1,0v14.24A.5.5,0,0,1,100,107.62Z" style="fill: #a1a1a1"/>
        </g>
      </g>
    </g>
    <g id="frameDash">
      <g id="frameD">
        <g>
          <polyline points="192.2 188.14 192.2 192.14 188.2 192.14" style="fill: none;stroke: #46a0f5;stroke-miterlimit: 10"/>
          <line x1="180.54" y1="192.14" x2="15.75" y2="192.14" style="fill: none;stroke: #46a0f5;stroke-miterlimit: 10;stroke-dasharray: 7.664572715759277,7.664572715759277"/>
          <polyline points="11.92 192.14 7.92 192.14 7.92 188.14" style="fill: none;stroke: #46a0f5;stroke-miterlimit: 10"/>
          <line x1="7.92" y1="180.48" x2="7.92" y2="15.69" style="fill: none;stroke: #46a0f5;stroke-miterlimit: 10;stroke-dasharray: 7.664572715759277,7.664572715759277"/>
          <polyline points="7.92 11.86 7.92 7.86 11.92 7.86" style="fill: none;stroke: #46a0f5;stroke-miterlimit: 10"/>
          <line x1="19.58" y1="7.86" x2="184.37" y2="7.86" style="fill: none;stroke: #46a0f5;stroke-miterlimit: 10;stroke-dasharray: 7.664572715759277,7.664572715759277"/>
          <polyline points="188.2 7.86 192.2 7.86 192.2 11.86" style="fill: none;stroke: #46a0f5;stroke-miterlimit: 10"/>
          <line x1="192.2" y1="19.52" x2="192.2" y2="184.31" style="fill: none;stroke: #46a0f5;stroke-miterlimit: 10;stroke-dasharray: 7.664572715759277,7.664572715759277"/>
        </g>
      </g>
    </g>
    <g id="frameSolid">
      <rect id="frameS" x="7.92" y="7.86" width="184.29" height="184.29" style="fill: none;stroke: #46a0f5;stroke-miterlimit: 10"/>
    </g>
    <g id="frameNodes">
      <g>
        <rect x="188.88" y="4.53" width="6.66" height="6.66" style="fill: #fff;stroke: #46a0f5;stroke-miterlimit: 10"/>
        <rect x="96.73" y="4.53" width="6.66" height="6.66" style="fill: #fff;stroke: #46a0f5;stroke-miterlimit: 10"/>
        <rect x="4.59" y="4.53" width="6.66" height="6.66" style="fill: #fff;stroke: #46a0f5;stroke-miterlimit: 10"/>
        <rect x="188.88" y="96.67" width="6.66" height="6.66" style="fill: #fff;stroke: #46a0f5;stroke-miterlimit: 10"/>
        <rect x="4.59" y="96.67" width="6.66" height="6.66" style="fill: #fff;stroke: #46a0f5;stroke-miterlimit: 10"/>
        <rect x="188.88" y="188.81" width="6.66" height="6.66" style="fill: #fff;stroke: #46a0f5;stroke-miterlimit: 10"/>
        <rect x="96.73" y="188.81" width="6.66" height="6.66" style="fill: #fff;stroke: #46a0f5;stroke-miterlimit: 10"/>
        <rect x="4.59" y="188.81" width="6.66" height="6.66" style="fill: #fff;stroke: #46a0f5;stroke-miterlimit: 10"/>
      </g>
    </g>
  </g>
</svg>
